<?xml version="1.0" standalone="no"?><!DOCTYPE svg PUBLIC "-//W3C//DTD SVG 1.1//EN" "http://www.w3.org/Graphics/SVG/1.1/DTD/svg11.dtd"><svg t="1518165681539" class="icon" style="" viewBox="0 0 1024 1024" version="1.1" xmlns="http://www.w3.org/2000/svg" p-id="656" xmlns:xlink="http://www.w3.org/1999/xlink" width="200" height="200"><defs><style type="text/css"></style></defs><path d="M950.446349 72.645581 73.856341 72.645581 73.856341 951.354419 615.065918 951.354419 615.065918 1023.39462 1.51345 1023.39462 1.51345 951.354419 1.81614 951.354419 1.81614 72.645581 1.51345 72.645581 1.51345 0.60538 1022.48655 0.60538 1022.48655 1.51345 1022.48655 72.645581 1022.48655 551.803725 950.446349 551.803725 950.446349 72.645581ZM424.370057 761.266663 186.037463 759.445983 144.381578 759.445983 146.497381 592.966829 199.172086 592.966829 199.168151 593.266492 513.663281 595.083237 513.663281 647.757943 198.498904 645.937263 197.724623 706.860571 424.370057 708.591957 424.370057 761.266663ZM820.286657 248.200589 820.286657 249.71646 823.016012 249.71646 820.900209 418.011753 820.286657 418.011753 820.286657 419.529743 198.272492 417.573761 198.267043 418.011753 145.592338 418.011753 147.40878 273.528168 147.40878 246.084786 820.286657 248.200589ZM768.870536 366.693401 769.700209 300.716079 199.764148 298.924155 198.934777 364.901477 768.870536 366.693401ZM814.08454 592.969554C929.181777 592.969554 1022.48655 686.274327 1022.48655 801.371564 1022.48655 916.4688 929.181777 1009.773574 814.08454 1009.773574 698.987304 1009.773574 605.68253 916.4688 605.68253 801.371564 605.68253 686.274327 698.987304 592.969554 814.08454 592.969554ZM692.811218 827.250644 787.673331 827.62386 787.299207 922.906107 839.917309 922.654269 840.28992 827.830598 935.6097 828.205631 935.357862 775.531531 840.496657 775.158617 840.871388 679.83702 788.252983 680.088858 787.880371 774.951577 692.55938 774.576544 692.811218 827.250644Z" p-id="657"></path></svg>