<?xml version="1.0" standalone="no"?><!DOCTYPE svg PUBLIC "-//W3C//DTD SVG 1.1//EN" "http://www.w3.org/Graphics/SVG/1.1/DTD/svg11.dtd"><svg t="1518927875526" class="icon" style="" viewBox="0 0 1024 1024" version="1.1" xmlns="http://www.w3.org/2000/svg" p-id="4092" xmlns:xlink="http://www.w3.org/1999/xlink" width="200" height="200"><defs><style type="text/css"></style></defs><path d="M235.52 540.672l67.584 67.584c8.192 8.192 20.48 8.192 28.672 0 8.192-8.192 8.192-20.48 0-28.672l-67.584-67.584 67.584-67.584c8.192-8.192 8.192-20.48 0-28.672-8.192-8.192-20.48-8.192-28.672 0l-67.584 67.584-67.584-67.584c-8.192-8.192-20.48-8.192-28.672 0-8.192 8.192-8.192 20.48 0 28.672l67.584 67.584-67.584 67.584c-8.192 8.192-8.192 20.48 0 28.672 8.192 8.192 20.48 8.192 28.672 0l67.584-67.584z m307.2-253.952v-122.88h-409.6v-40.96h450.56v204.8h-450.56v-40.96h409.6z m0 573.44v-122.88h-409.6v-40.96h450.56v204.8h-450.56v-40.96h409.6z m-61.44-450.56h409.6v204.8h-409.6v-204.8z m40.96 163.84h327.68v-122.88h-327.68v122.88z" p-id="4093" fill="#f94919"></path></svg>