<?xml version="1.0" standalone="no"?><!DOCTYPE svg PUBLIC "-//W3C//DTD SVG 1.1//EN" "http://www.w3.org/Graphics/SVG/1.1/DTD/svg11.dtd"><svg t="1518926587456" class="icon" style="" viewBox="0 0 1024 1024" version="1.1" xmlns="http://www.w3.org/2000/svg" p-id="2667" xmlns:xlink="http://www.w3.org/1999/xlink" width="200" height="200"><defs><style type="text/css"></style></defs><path d="M950.446349 72.645581 73.856341 72.645581 73.856341 951.354419 615.065918 951.354419 615.065918 1023.39462 1.51345 1023.39462 1.51345 951.354419 1.81614 951.354419 1.81614 72.645581 1.51345 72.645581 1.51345 0.60538 1022.48655 0.60538 1022.48655 1.51345 1022.48655 72.645581 1022.48655 551.803725 950.446349 551.803725 950.446349 72.645581ZM424.370057 761.266663 186.037463 759.445983 144.381578 759.445983 146.497381 592.966829 199.172086 592.966829 199.168151 593.266492 513.663281 595.083237 513.663281 647.757943 198.498904 645.937263 197.724623 706.860571 424.370057 708.591957 424.370057 761.266663ZM820.286657 248.200589 820.286657 249.71646 823.016012 249.71646 820.900209 418.011753 820.286657 418.011753 820.286657 419.529743 198.272492 417.573761 198.267043 418.011753 145.592338 418.011753 147.40878 273.528168 147.40878 246.084786 820.286657 248.200589ZM768.870536 366.693401 769.700209 300.716079 199.764148 298.924155 198.934777 364.901477 768.870536 366.693401ZM814.08454 570.5705C929.181777 570.5705 1022.48655 663.875273 1022.48655 778.97251 1022.48655 894.069746 929.181777 987.37452 814.08454 987.37452 698.987304 987.37452 605.68253 894.069746 605.68253 778.97251 605.68253 663.875273 698.987304 570.5705 814.08454 570.5705ZM745.444455 882.257575 813.546963 816.208818 879.883275 884.607659 917.337823 847.643469 851.320849 779.574257 919.752078 713.207071 882.751868 675.715594 814.650268 741.763443 748.286714 673.336754 710.832166 710.300642 776.876382 778.398004 708.444245 844.766099 745.444455 882.257575Z" p-id="2668"></path></svg>